<?xml version="1.0" encoding="UTF-8"?>
<svg width="128" height="128" viewBox="0 0 128 128" fill="none" xmlns="http://www.w3.org/2000/svg">
  <rect width="128" height="128" rx="24" fill="#0077B6"/>
  <rect x="8" y="8" width="112" height="112" rx="20" fill="#00B4D8"/>
  <path d="M64 16C37.49 16 16 37.49 16 64C16 90.51 37.49 112 64 112C90.51 112 112 90.51 112 64C112 37.49 90.51 16 64 16ZM64 104C42.36 104 24 85.64 24 64C24 42.36 42.36 24 64 24C85.64 24 104 42.36 104 64C104 85.64 85.64 104 64 104Z" fill="#CDEEF6"/>
  <path d="M86.4 46.8C87.1225 46.8 87.8152 47.0321 88.3778 47.4612C88.9404 47.8902 89.3372 48.4926 89.5034 49.183C89.6696 49.8734 89.5952 50.6001 89.2921 51.2433C88.989 51.8865 88.476 52.4089 87.84 52.72L67.28 62.72V82.8C67.28 83.6487 66.9429 84.463 66.3428 85.0631C65.7427 85.6633 64.9287 86 64.08 86C63.2313 86 62.4173 85.6633 61.8172 85.0631C61.2171 84.463 60.88 83.6487 60.88 82.8V62.72L40.24 52.72C39.604 52.4089 39.091 51.8865 38.7879 51.2433C38.4848 50.6001 38.4104 49.8734 38.5766 49.183C38.7428 48.4926 39.1396 47.8902 39.7022 47.4612C40.2648 47.0321 40.9575 46.8 41.68 46.8H86.4Z" fill="#CAF0F8"/>
  <path d="M68 36H60V44H68V36Z" fill="#CAF0F8"/>
  <path d="M76.6 64L68 56V72L76.6 64Z" fill="#0077B6"/>
  <path d="M51.4 64L60 72V56L51.4 64Z" fill="#0077B6"/>
</svg>