<?xml version="1.0" encoding="UTF-8"?>
<svg width="16" height="16" viewBox="0 0 16 16" fill="none" xmlns="http://www.w3.org/2000/svg">
  <rect width="16" height="16" rx="3" fill="#0077B6"/>
  <rect x="1" y="1" width="14" height="14" rx="2.5" fill="#00B4D8"/>
  <path d="M8 2C4.686 2 2 4.686 2 8C2 11.314 4.686 14 8 14C11.314 14 14 11.314 14 8C14 4.686 11.314 2 8 2ZM8 13C5.28 13 3 10.72 3 8C3 5.28 5.28 3 8 3C10.72 3 13 5.28 13 8C13 10.72 10.72 13 8 13Z" fill="#CDEEF6"/>
  <path d="M10.8 5.85C10.8903 5.85 10.9769 5.879 11.0472 5.9326C11.1176 5.9863 11.1672 6.0616 11.1879 6.1479C11.2087 6.2342 11.1994 6.325 11.1615 6.4054C11.1236 6.4858 11.0595 6.5511 10.98 6.59L8.41 7.84V10.35C8.41 10.4656 8.3662 10.5764 8.2879 10.6546C8.2096 10.7329 8.0989 10.7767 7.9833 10.7767C7.8678 10.7767 7.757 10.7329 7.6787 10.6546C7.6005 10.5764 7.5567 10.4656 7.5567 10.35V7.84L5.03 6.59C4.9505 6.5511 4.8864 6.4858 4.8485 6.4054C4.8106 6.325 4.8013 6.2342 4.8221 6.1479C4.8428 6.0616 4.8924 5.9863 4.9628 5.9326C5.0331 5.879 5.1197 5.85 5.21 5.85H10.8Z" fill="#CAF0F8"/>
  <path d="M8.5 4.5H7.5V5.5H8.5V4.5Z" fill="#CAF0F8"/>
  <path d="M9.575 8L8.5 7V9L9.575 8Z" fill="#0077B6"/>
  <path d="M6.425 8L7.5 9V7L6.425 8Z" fill="#0077B6"/>
</svg>