<?xml version="1.0" encoding="UTF-8"?>
<svg width="48" height="48" viewBox="0 0 48 48" fill="none" xmlns="http://www.w3.org/2000/svg">
  <rect width="48" height="48" rx="9" fill="#0077B6"/>
  <rect x="3" y="3" width="42" height="42" rx="7.5" fill="#00B4D8"/>
  <path d="M24 6C14.058 6 6 14.058 6 24C6 33.942 14.058 42 24 42C33.942 42 42 33.942 42 24C42 14.058 33.942 6 24 6ZM24 39C15.85 39 9 32.15 9 24C9 15.85 15.85 9 24 9C32.15 9 39 15.85 39 24C39 32.15 32.15 39 24 39Z" fill="#CDEEF6"/>
  <path d="M32.4 17.55C32.6709 17.55 32.9307 17.6371 33.1417 17.798C33.3527 17.9589 33.5015 18.1847 33.5638 18.4436C33.6261 18.7025 33.5982 18.975 33.4845 19.2162C33.3709 19.4574 33.1785 19.6533 32.94 19.77L25.23 23.52V31.05C25.23 31.3967 25.0986 31.7291 24.8636 31.9636C24.6286 32.1982 24.2967 32.33 23.95 32.33C23.6033 32.33 23.2714 32.1986 23.0364 31.9636C22.8014 31.7286 22.67 31.3967 22.67 31.05V23.52L15.09 19.77C14.8515 19.6533 14.6591 19.4574 14.5455 19.2162C14.4318 18.975 14.4039 18.7025 14.4662 18.4436C14.5285 18.1847 14.6773 17.9589 14.8883 17.798C15.0993 17.6371 15.3591 17.55 15.63 17.55H32.4Z" fill="#CAF0F8"/>
  <path d="M25.5 13.5H22.5V16.5H25.5V13.5Z" fill="#CAF0F8"/>
  <path d="M28.725 24L25.5 21V27L28.725 24Z" fill="#0077B6"/>
  <path d="M19.275 24L22.5 27V21L19.275 24Z" fill="#0077B6"/>
</svg>